<mxfile host="Electron" modified="2023-07-06T21:33:15.670Z" agent="Mozilla/5.0 (Macintosh; Intel Mac OS X 10_15_7) AppleWebKit/537.36 (KHTML, like Gecko) draw.io/21.2.8 Chrome/112.0.5615.165 Electron/24.2.0 Safari/537.36" etag="mHUoeR6SlDwTQj3nu0wM" version="21.2.8" type="device" pages="2">
  <diagram id="TJP2GoI8mEYI7KxOoP_i" name="architecture">
    <mxGraphModel dx="514" dy="924" grid="1" gridSize="10" guides="1" tooltips="1" connect="1" arrows="1" fold="1" page="0" pageScale="1" pageWidth="850" pageHeight="1100" math="0" shadow="0">
      <root>
        <mxCell id="0" />
        <mxCell id="1" parent="0" />
        <mxCell id="AOSSZ3ATqcDoklhtvqDl-8" style="edgeStyle=orthogonalEdgeStyle;rounded=0;orthogonalLoop=1;jettySize=auto;html=1;entryX=0;entryY=0.5;entryDx=0;entryDy=0;" parent="1" source="AOSSZ3ATqcDoklhtvqDl-1" target="AOSSZ3ATqcDoklhtvqDl-5" edge="1">
          <mxGeometry relative="1" as="geometry" />
        </mxCell>
        <mxCell id="AOSSZ3ATqcDoklhtvqDl-1" value="Code Engine" style="group;fontFamily=IBM Plex Sans;verticalAlign=top;labelPosition=center;verticalLabelPosition=bottom;align=center;spacingLeft=0;spacingRight=0;spacingBottom=4;whiteSpace=wrap;html=1;fontStyle=0;fontSize=14;strokeOpacity=0;strokeColor=none;strokeWidth=0;spacing=0;connectable=1;" parent="1" vertex="1" connectable="0">
          <mxGeometry x="1360" y="440" width="48" height="48" as="geometry" />
        </mxCell>
        <mxCell id="AOSSZ3ATqcDoklhtvqDl-2" value="" style="editable=0;moveable=0;rounded=0;whiteSpace=wrap;html=1;spacingLeft=0;verticalAlign=top;fontFamily=IBM Plex Sans;fontSize=14;align=center;spacingBottom=0;spacingRight=0;labelPosition=center;verticalLabelPosition=bottom;spacing=0;strokeColor=#999999;connectable=0;allowArrows=0;" parent="AOSSZ3ATqcDoklhtvqDl-1" vertex="1">
          <mxGeometry width="48" height="48" as="geometry" />
        </mxCell>
        <mxCell id="AOSSZ3ATqcDoklhtvqDl-3" value="" style="editable=0;moveable=0;rounded=0;shape=image;verticalLabelPosition=bottom;labelBackgroundColor=default;verticalAlign=top;aspect=fixed;imageAspect=0;image=data:image/svg+xml,PHN2ZyBpZD0iY29saWdvLWFwcC1pY29uIiB4bWxucz0iaHR0cDovL3d3dy53My5vcmcvMjAwMC9zdmciIHhtbG5zOnhsaW5rPSJodHRwOi8vd3d3LnczLm9yZy8xOTk5L3hsaW5rIiB2aWV3Qm94PSIwIDAgMzIgMzIiPjxkZWZzPjxsaW5lYXJHcmFkaWVudCBpZD0iYSIgeTE9IjIxIiB4Mj0iOCIgeTI9IjIxIiBncmFkaWVudFVuaXRzPSJ1c2VyU3BhY2VPblVzZSI+PHN0b3Agb2Zmc2V0PSIwLjE1Ii8+PHN0b3Agb2Zmc2V0PSIxIiBzdG9wLW9wYWNpdHk9IjAiLz48L2xpbmVhckdyYWRpZW50PjxsaW5lYXJHcmFkaWVudCBpZD0iYiIgeDE9IjE2LjUiIHkxPSIyMS41IiB4Mj0iMjUuNSIgeTI9IjIxLjUiIGdyYWRpZW50VW5pdHM9InVzZXJTcGFjZU9uVXNlIj48c3RvcCBvZmZzZXQ9IjAuMSIvPjxzdG9wIG9mZnNldD0iMC44IiBzdG9wLW9wYWNpdHk9IjAiLz48L2xpbmVhckdyYWRpZW50PjxsaW5lYXJHcmFkaWVudCBpZD0iYyIgeDE9IjAiIHkxPSI5IiB4Mj0iMTEiIHkyPSI5IiB4bGluazpocmVmPSIjYSIvPjxtYXNrIGlkPSJtYXNrIiB4PSIwIiB5PSIwIiB3aWR0aD0iMzIiIGhlaWdodD0iMzIiIG1hc2tVbml0cz0idXNlclNwYWNlT25Vc2UiPjxwYXRoIGZpbGw9IiNmZmYiIGQ9Ik0yMCwxOHY4SDEwVjE2aDRWMTRIOS4wOEExLjA4LDEuMDgsMCwwLDAsOCwxNS4wOFYyMEgxdjJIOHY0LjkyQTEuMDgsMS4wOCwwLDAsMCw5LjA4LDI4SDIwLjkyQTEuMDgsMS4wOCwwLDAsMCwyMiwyNi45MlYxOFoiLz48cmVjdCB4PSIxIiB5PSI4IiB3aWR0aD0iMTMiIGhlaWdodD0iMiIgZmlsbD0iI2ZmZiIvPjxyZWN0IHk9IjE5IiB3aWR0aD0iOCIgaGVpZ2h0PSI0IiBmaWxsPSJ1cmwoI2EpIi8+PHJlY3QgeD0iMTYuNSIgeT0iMTkuNSIgd2lkdGg9IjkiIGhlaWdodD0iNCIgZmlsbD0idXJsKCNiKSIgdHJhbnNmb3JtPSJ0cmFuc2xhdGUoNDIuNSAwLjUpIHJvdGF0ZSg5MCkiLz48cmVjdCB5PSI3IiB3aWR0aD0iMTEiIGhlaWdodD0iNCIgZmlsbD0idXJsKCNjKSIvPjwvbWFzaz48bGluZWFyR3JhZGllbnQgaWQ9ImQiIHkxPSIzMiIgeDI9IjMyIiBncmFkaWVudFVuaXRzPSJ1c2VyU3BhY2VPblVzZSI+PHN0b3Agb2Zmc2V0PSIwLjEiIHN0b3AtY29sb3I9IiMwOGJkYmEiLz48c3RvcCBvZmZzZXQ9IjAuOSIgc3RvcC1jb2xvcj0iIzBmNjJmZSIvPjwvbGluZWFyR3JhZGllbnQ+PC9kZWZzPjxyZWN0IGlkPSJiYWNrZ3JvdW5kLXNoYXBlIiBtYXNrPSJ1cmwoI21hc2spIiBmaWxsPSJ1cmwoI2QpIiB3aWR0aD0iMzIiIGhlaWdodD0iMzIiLz48cGF0aCBpZD0iZm9yZWdyb3VuZC1jb250YWluZXIiIGZpbGw9IiMwMDFkNmMiIGQ9Ik0yOSwxOEgxN2ExLDEsMCwwLDEtMS0xVjVhMSwxLDAsMCwxLDEtMUgyOWExLDEsMCwwLDEsMSwxVjE3YTEsMSwwLDAsMS0xLDFNMTgsMTZIMjhWNkgxOFoiLz48L3N2Zz4K;imageBorder=none;perimeterSpacing=0;imageBackground=none;sketch=0;connectable=0;allowArrows=0;" parent="AOSSZ3ATqcDoklhtvqDl-1" vertex="1">
          <mxGeometry x="12" y="12" width="24" height="24" as="geometry" />
        </mxCell>
        <mxCell id="AOSSZ3ATqcDoklhtvqDl-5" value="Cloud Object Storage" style="group;fontFamily=IBM Plex Sans;verticalAlign=top;labelPosition=center;verticalLabelPosition=bottom;align=center;spacingLeft=0;spacingRight=0;spacingBottom=4;whiteSpace=wrap;html=1;fontStyle=0;fontSize=14;strokeOpacity=0;strokeColor=none;strokeWidth=0;spacing=0;connectable=1;" parent="1" vertex="1" connectable="0">
          <mxGeometry x="1560" y="440" width="48" height="48" as="geometry" />
        </mxCell>
        <mxCell id="AOSSZ3ATqcDoklhtvqDl-6" value="" style="editable=0;moveable=0;rounded=0;whiteSpace=wrap;html=1;spacingLeft=0;verticalAlign=top;fontFamily=IBM Plex Sans;fontSize=14;align=center;spacingBottom=0;spacingRight=0;labelPosition=center;verticalLabelPosition=bottom;spacing=0;strokeColor=#999999;connectable=0;allowArrows=0;" parent="AOSSZ3ATqcDoklhtvqDl-5" vertex="1">
          <mxGeometry width="48" height="48" as="geometry" />
        </mxCell>
        <mxCell id="AOSSZ3ATqcDoklhtvqDl-7" value="" style="editable=0;moveable=0;rounded=0;shape=image;verticalLabelPosition=bottom;labelBackgroundColor=default;verticalAlign=top;aspect=fixed;imageAspect=0;image=data:image/svg+xml,PHN2ZyB4bWxucz0iaHR0cDovL3d3dy53My5vcmcvMjAwMC9zdmciIHhtbG5zOnhsaW5rPSJodHRwOi8vd3d3LnczLm9yZy8xOTk5L3hsaW5rIiB3aWR0aD0iMzIiIGhlaWdodD0iMzIiIHZpZXdCb3g9IjAgMCAzMiAzMiI+PGRlZnM+PHN0eWxlPi5he2ZpbGw6I2ZmZjt9LmJ7ZmlsbDp1cmwoI2EpO30uY3ttYXNrOnVybCgjYik7fS5ke2ZpbGw6dXJsKCNjKTt9LmV7ZmlsbDojMDAxZDZjO308L3N0eWxlPjxsaW5lYXJHcmFkaWVudCBpZD0iYSIgeDE9Ii0zMzEuNSIgeTE9Ii0xMjcuNSIgeDI9Ii0zMjEuNSIgeTI9Ii0xMjcuNSIgZ3JhZGllbnRUcmFuc2Zvcm09InRyYW5zbGF0ZSgzMzUuNSAxNDguNSkiIGdyYWRpZW50VW5pdHM9InVzZXJTcGFjZU9uVXNlIj48c3RvcCBvZmZzZXQ9IjAuMTMiLz48c3RvcCBvZmZzZXQ9IjAuODkiIHN0b3Atb3BhY2l0eT0iMCIvPjwvbGluZWFyR3JhZGllbnQ+PG1hc2sgaWQ9ImIiIHg9IjAiIHk9IjAiIHdpZHRoPSIzMiIgaGVpZ2h0PSIzMiIgbWFza1VuaXRzPSJ1c2VyU3BhY2VPblVzZSI+PGNpcmNsZSBjbGFzcz0iYSIgY3g9IjciIGN5PSIyNSIgcj0iMSIvPjxwYXRoIGNsYXNzPSJhIiBkPSJNMjgsMjBIMjZ2MmgydjZINFYyMmg5Ljk0VjIwSDRhMiwyLDAsMCwwLTIsMnY2YTIsMiwwLDAsMCwyLDJIMjhhMiwyLDAsMCwwLDItMlYyMkEyLDIsMCwwLDAsMjgsMjBaIi8+PHJlY3QgY2xhc3M9ImIiIHg9IjQiIHk9IjE5IiB3aWR0aD0iMTAiIGhlaWdodD0iNCIgdHJhbnNmb3JtPSJ0cmFuc2xhdGUoMTggNDIpIHJvdGF0ZSgxODApIi8+PC9tYXNrPjxsaW5lYXJHcmFkaWVudCBpZD0iYyIgeTE9IjMyIiB4Mj0iMzIiIGdyYWRpZW50VW5pdHM9InVzZXJTcGFjZU9uVXNlIj48c3RvcCBvZmZzZXQ9IjAuMSIgc3RvcC1jb2xvcj0iI2E1NmVmZiIvPjxzdG9wIG9mZnNldD0iMC45IiBzdG9wLWNvbG9yPSIjMGY2MmZlIi8+PC9saW5lYXJHcmFkaWVudD48L2RlZnM+PGcgY2xhc3M9ImMiPjxyZWN0IGNsYXNzPSJkIiB3aWR0aD0iMzIiIGhlaWdodD0iMzIiLz48L2c+PHBhdGggY2xhc3M9ImUiIGQ9Ik0xOCwxMEgxMFYyaDhaTTEyLDhoNFY0SDEyWiIvPjxwYXRoIGNsYXNzPSJlIiBkPSJNMjIsMTRIMTZ2OGg4VjE2aDZWOEgyMlptMCw2SDE4VjE2aDRabTYtMTB2NEgyNFYxMFoiLz48L3N2Zz4=;imageBorder=none;perimeterSpacing=0;imageBackground=none;sketch=0;connectable=0;allowArrows=0;" parent="AOSSZ3ATqcDoklhtvqDl-5" vertex="1">
          <mxGeometry x="12" y="12" width="24" height="24" as="geometry" />
        </mxCell>
        <mxCell id="AOSSZ3ATqcDoklhtvqDl-10" style="edgeStyle=orthogonalEdgeStyle;rounded=0;orthogonalLoop=1;jettySize=auto;html=1;entryX=0;entryY=0.5;entryDx=0;entryDy=0;" parent="1" source="AOSSZ3ATqcDoklhtvqDl-9" target="AOSSZ3ATqcDoklhtvqDl-1" edge="1">
          <mxGeometry relative="1" as="geometry" />
        </mxCell>
        <mxCell id="AOSSZ3ATqcDoklhtvqDl-9" value="Web Browser" style="image;aspect=fixed;perimeter=ellipsePerimeter;html=1;align=center;shadow=0;dashed=0;fontColor=#4277BB;labelBackgroundColor=default;fontSize=14;spacingTop=3;image=img/lib/ibm/users/browser.svg;fontFamily=IBM Plex Sans;" parent="1" vertex="1">
          <mxGeometry x="1210" y="440" width="48" height="48" as="geometry" />
        </mxCell>
        <mxCell id="wVfHaXrb_7pcIsEJH9eo-1" value="" style="rounded=0;whiteSpace=wrap;html=1;fontFamily=IBM Plex Sans;fontSource=fonts%2FIBMPlexSans-Regular.woff;fontSize=14;spacingBottom=-28;spacingTop=0;labelPosition=-100;verticalLabelPosition=top;align=center;verticalAlign=bottom;spacingLeft=9;spacing=0;expand=0;recursiveResize=0;spacingRight=0;container=1;collapsible=0;strokeColor=#1192E8;fillColor=none;" parent="1" vertex="1">
          <mxGeometry x="1320" y="380" width="320" height="180" as="geometry">
            <mxRectangle width="670" as="alternateBounds" />
          </mxGeometry>
        </mxCell>
        <mxCell id="wVfHaXrb_7pcIsEJH9eo-2" value="" style="rounded=0;whiteSpace=wrap;html=1;strokeColor=none;fillColor=#1192E8;" parent="wVfHaXrb_7pcIsEJH9eo-1" vertex="1">
          <mxGeometry width="7" height="37" as="geometry" />
        </mxCell>
        <mxCell id="wVfHaXrb_7pcIsEJH9eo-3" value="IBM Cloud" style="text;html=1;strokeColor=none;fillColor=none;align=left;verticalAlign=middle;whiteSpace=wrap;rounded=0;fontFamily=IBM Plex Sans;fontSource=fonts%2FIBMPlexSans-Regular.woff;fontSize=14;" parent="wVfHaXrb_7pcIsEJH9eo-1" vertex="1">
          <mxGeometry x="51" y="8" width="163" height="20" as="geometry" />
        </mxCell>
        <mxCell id="wVfHaXrb_7pcIsEJH9eo-4" value="" style="shape=image;aspect=fixed;image=data:image/svg+xml,PD94bWwgdmVyc2lvbj0iMS4wIiBlbmNvZGluZz0iVVRGLTgiPz4KPHN2ZyB3aWR0aD0iMzNweCIgaGVpZ2h0PSIzMXB4IiB2aWV3Qm94PSIwIDAgMzMgMzEiIHZlcnNpb249IjEuMSIgeG1sbnM9Imh0dHA6Ly93d3cudzMub3JnLzIwMDAvc3ZnIiB4bWxuczp4bGluaz0iaHR0cDovL3d3dy53My5vcmcvMTk5OS94bGluayI+CiAgICA8IS0tIEdlbmVyYXRvcjogU2tldGNoIDUzICg3MjUyMCkgLSBodHRwczovL3NrZXRjaGFwcC5jb20gLS0+CiAgICA8dGl0bGU+SUJNIENsb3VkIEJsYWNrPC90aXRsZT4KICAgIDxkZXNjPkNyZWF0ZWQgd2l0aCBTa2V0Y2guPC9kZXNjPgogICAgPGcgaWQ9IlBhZ2UtMSIgc3Ryb2tlPSJub25lIiBzdHJva2Utd2lkdGg9IjEiIGZpbGw9Im5vbmUiIGZpbGwtcnVsZT0iZXZlbm9kZCI+CiAgICAgICAgPGcgaWQ9IklCTS1DbG91ZC1CbGFjayIgdHJhbnNmb3JtPSJ0cmFuc2xhdGUoMC43ODQ3MjIsIDAuNTAwMTI1KSIgZmlsbD0iIzAwMDAwMCI+CiAgICAgICAgICAgIDxwYXRoIGQ9Ik0yNy4xMDIxLDI3LjAxMDYgQzI1Ljg3MDEsMjcuODc5NiAyNC4zNjExLDI4LjI2NzYgMjIuODUzMSwyOC4yNjc2IEw3LjAwNDEsMjguMjY3NiBDNC4xMTIxLDI4LjI3NDYgMS43NjIxLDI1LjkzNDYgMS43NTUxLDIzLjA0MjYgQzEuNzQ5MSwyMC40MTA2IDMuNjk3MSwxOC4xODM2IDYuMzA1MSwxNy44Mzg2IEM2LjQxMTEsMTkuMTYxNiA2Ljc4NzEsMjAuNDQ5NiA3LjQwOTEsMjEuNjIxNiBDNy41OTUxLDIxLjk5MTYgOC4wNDYxLDIyLjE0MDYgOC40MTYxLDIxLjk1NDYgQzguNzg2MSwyMS43Njc2IDguOTM1MSwyMS4zMTc2IDguNzQ4MSwyMC45NDc2IEw4LjczMDEsMjAuOTEyNiBDNy4xMzIxLDE3LjkzNTYgNy40MjkxLDE0LjIxNzYgOS42NzIxLDExLjY4OTYgQzEzLjQ4NjEsNy4zOTI2IDE5Ljc4NzEsOC4wNTI2IDIyLjc1NzEsMTIuMjgxNiBDMjAuMzM0MSwxMi4zNDc2IDE4LjA0NzEsMTMuNDE1NiAxNi40NDExLDE1LjIzMDYgQzE2LjE2MTEsMTUuNTM1NiAxNi4xODExLDE2LjAxMDYgMTYuNDg1MSwxNi4yOTA2IEMxNi43ODkxLDE2LjU3MTYgMTcuMjY0MSwxNi41NTI2IDE3LjU0NTEsMTYuMjQ3NiBMMTcuNTY2MSwxNi4yMjI2IEMxOS41OTUxLDEzLjkyMzYgMjIuODg0MSwxMy4wNTI2IDI1LjcwMzEsMTQuMjYzNiBDMzEuMTY1MSwxNi42MDk2IDMxLjgxMDEsMjMuNjkyNiAyNy4xMDIxLDI3LjAxMDYgTTI0LjU4NTEsMTIuOTE3NiBDMjIuMDU0MSw4LjE3NTYgMTYuMTU5MSw2LjM4MjYgMTEuNDE2MSw4LjkxMzYgQzguNDY1MSwxMC40ODg2IDYuNTI5MSwxMy40Njg2IDYuMjkwMSwxNi44MDY2IEMyLjU4NDEsMTcuMjA0NiAtMC4wOTc5LDIwLjUzMjYgMC4zMDExLDI0LjIzOTYgQzAuNjY5MSwyNy42NjU2IDMuNTU5MSwzMC4yNjM2IDcuMDA0MSwzMC4yNjc2IEwyMy4wMDQxLDMwLjI2NzYgQzI3LjgzNTEsMzAuMjcwNiAzMS43NTMxLDI2LjM1NzYgMzEuNzU2MSwyMS41MjY2IEMzMS43NTkxLDE3LjMwMTYgMjguNzQxMSwxMy42Nzg2IDI0LjU4NTEsMTIuOTE3NiIgaWQ9IkZpbGwtMSI+PC9wYXRoPgogICAgICAgICAgICA8ZyBpZD0iR3JvdXAtNSIgdHJhbnNmb3JtPSJ0cmFuc2xhdGUoMjcuMDAwMDAwLCA4LjI2NzcwMCkiPgogICAgICAgICAgICAgICAgPHBhdGggZD0iTTQuOTAyOCwwLjkxOTcgQzQuNjkzOCwwLjU1NjcgNC4yMjk4LDAuNDMyNyAzLjg2NjgsMC42NDE3IEMzLjg2NjgsMC42NDE3IDMuODY2OCwwLjY0MTcgMy44NjY4LDAuNjQyNyBMMC44NDY4LDIuMzg1NyBDMC40Nzg4LDIuNTg2NyAwLjM0MzgsMy4wNDc3IDAuNTQ0OCwzLjQxNTcgQzAuNzQ1OCwzLjc4MzcgMS4yMDY4LDMuOTE4NyAxLjU3NDgsMy43MTc3IEMxLjU4NDgsMy43MTE3IDEuNTk0OCwzLjcwNTcgMS42MDQ4LDMuNjk5NyBMNC42MjQ4LDEuOTU2NyBDNC45ODc4LDEuNzQ2NyA1LjExMTgsMS4yODI3IDQuOTAyOCwwLjkxOTciIGlkPSJGaWxsLTMiPjwvcGF0aD4KICAgICAgICAgICAgPC9nPgogICAgICAgICAgICA8cGF0aCBkPSJNMjIuNjgxMiw2LjgwMjYgQzIzLjA0MzIsNy4wMTI2IDIzLjUwNzIsNi44ODg2IDIzLjcxNzIsNi41MjU2IEwyMy43MTcyLDYuNTI1NiBMMjUuNDYxMiwzLjUwNTYgQzI1LjY2ODIsMy4xNDA2IDI1LjU0MDIsMi42Nzc2IDI1LjE3NjIsMi40NzA2IEMyNC44MTUyLDIuMjY2NiAyNC4zNTcyLDIuMzg4NiAyNC4xNDcyLDIuNzQ2NiBMMjIuNDAzMiw1Ljc2NjYgQzIyLjE5NDIsNi4xMjk2IDIyLjMxODIsNi41OTM2IDIyLjY4MTIsNi44MDI2IiBpZD0iRmlsbC02Ij48L3BhdGg+CiAgICAgICAgICAgIDxwYXRoIGQ9Ik0xNi4wMDQ0LDUuMDE0MSBDMTYuNDIzNCw1LjAxNDEgMTYuNzYzNCw0LjY3NDEgMTcuMzM1NCw0LjI1NTEgTDE3LjMzNTQsMC43NjcxIEMxNi43Njg0LDAuMzQ4MSAxNi40MzI0LDAuMDA1MSAxNi4wMTM0LDAuMDAwMSBDMTUuNTk0NCwtMC4wMDQ5IDE1LjI1MTQsMC4zMzExIDE1LjMzNTQsMC43NTAxIEwxNS4zMzU0LDAuNzY3MSBMMTUuMzM1NCw0LjI1NTEgQzE1LjI0NjQsNC42NzQxIDE1LjU4NTQsNS4wMTQxIDE2LjAwNDQsNS4wMTQxIiBpZD0iRmlsbC04Ij48L3BhdGg+CiAgICAgICAgICAgIDxwYXRoIGQ9Ik04LjI5Miw2LjUyNDggQzguNTA0LDYuODg1OCA4Ljk2OSw3LjAwNjggOS4zMzEsNi43OTQ4IEM5LjY4OCw2LjU4NDggOS44MTEsNi4xMjY4IDkuNjA2LDUuNzY1OCBMNy44NjIsMi43NDU4IEM3LjY1NSwyLjM4MTggNy4xOTIsMi4yNTM4IDYuODI4LDIuNDYwOCBDNi40NjMsMi42Njc4IDYuMzM1LDMuMTMwOCA2LjU0MiwzLjQ5NDggQzYuNTQ0LDMuNDk4OCA2LjU0NiwzLjUwMTggNi41NDgsMy41MDQ4IEw4LjI5Miw2LjUyNDggWiIgaWQ9IkZpbGwtMTAiPjwvcGF0aD4KICAgICAgICAgICAgPGcgaWQ9Ikdyb3VwLTE0IiB0cmFuc2Zvcm09InRyYW5zbGF0ZSgwLjAwMDAwMCwgOC4yNjc3MDApIj4KICAgICAgICAgICAgICAgIDxwYXRoIGQ9Ik00LjE2MzEsMi4zODYgTDEuMTQzMSwwLjY0MiBDMC43ODIxLDAuNDMgMC4zMTcxLDAuNTUxIDAuMTA0MSwwLjkxMiBDLTAuMTA3OSwxLjI3MyAwLjAxMzEsMS43MzkgMC4zNzQxLDEuOTUgQzAuMzc4MSwxLjk1MiAwLjM4MTEsMS45NTQgMC4zODQxLDEuOTU2IEwzLjQwNTEsMy43IEMzLjc2NjEsMy45MTIgNC4yMzExLDMuNzkxIDQuNDQzMSwzLjQzIEM0LjY1NTEsMy4wNjkgNC41MzUxLDIuNjA0IDQuMTczMSwyLjM5MiBDNC4xNzAxLDIuMzkgNC4xNjYxLDIuMzg4IDQuMTYzMSwyLjM4NiBaIiBpZD0iRmlsbC0xMiI+PC9wYXRoPgogICAgICAgICAgICA8L2c+CiAgICAgICAgPC9nPgogICAgPC9nPgo8L3N2Zz4=;" parent="wVfHaXrb_7pcIsEJH9eo-1" vertex="1">
          <mxGeometry x="20" y="7" width="21" height="19.73" as="geometry" />
        </mxCell>
      </root>
    </mxGraphModel>
  </diagram>
  <diagram id="MqGwaZNnWmBT6AoBb5N-" name="source to code">
    <mxGraphModel dx="514" dy="524" grid="1" gridSize="10" guides="1" tooltips="1" connect="1" arrows="1" fold="1" page="0" pageScale="1" pageWidth="850" pageHeight="1100" math="0" shadow="0">
      <root>
        <mxCell id="0" />
        <mxCell id="1" parent="0" />
        <mxCell id="YctmOl4MNaRxCmh7PBM7-10" value="" style="rounded=0;whiteSpace=wrap;html=1;fontFamily=IBM Plex Sans;fontSource=fonts%2FIBMPlexSans-Regular.woff;fontSize=14;spacingBottom=-28;spacingTop=0;labelPosition=-100;verticalLabelPosition=top;align=center;verticalAlign=bottom;spacingLeft=9;spacing=0;expand=0;recursiveResize=0;spacingRight=0;container=1;collapsible=0;strokeColor=#1192E8;fillColor=none;" vertex="1" parent="1">
          <mxGeometry x="1250" y="710" width="230" height="160" as="geometry">
            <mxRectangle width="670" as="alternateBounds" />
          </mxGeometry>
        </mxCell>
        <mxCell id="YctmOl4MNaRxCmh7PBM7-11" value="" style="rounded=0;whiteSpace=wrap;html=1;strokeColor=none;fillColor=#1192E8;" vertex="1" parent="YctmOl4MNaRxCmh7PBM7-10">
          <mxGeometry width="7" height="37" as="geometry" />
        </mxCell>
        <mxCell id="YctmOl4MNaRxCmh7PBM7-12" value="IBM Cloud" style="text;html=1;strokeColor=none;fillColor=none;align=left;verticalAlign=middle;whiteSpace=wrap;rounded=0;fontFamily=IBM Plex Sans;fontSource=fonts%2FIBMPlexSans-Regular.woff;fontSize=14;" vertex="1" parent="YctmOl4MNaRxCmh7PBM7-10">
          <mxGeometry x="51" y="8" width="163" height="20" as="geometry" />
        </mxCell>
        <mxCell id="YctmOl4MNaRxCmh7PBM7-13" value="" style="shape=image;aspect=fixed;image=data:image/svg+xml,PD94bWwgdmVyc2lvbj0iMS4wIiBlbmNvZGluZz0iVVRGLTgiPz4KPHN2ZyB3aWR0aD0iMzNweCIgaGVpZ2h0PSIzMXB4IiB2aWV3Qm94PSIwIDAgMzMgMzEiIHZlcnNpb249IjEuMSIgeG1sbnM9Imh0dHA6Ly93d3cudzMub3JnLzIwMDAvc3ZnIiB4bWxuczp4bGluaz0iaHR0cDovL3d3dy53My5vcmcvMTk5OS94bGluayI+CiAgICA8IS0tIEdlbmVyYXRvcjogU2tldGNoIDUzICg3MjUyMCkgLSBodHRwczovL3NrZXRjaGFwcC5jb20gLS0+CiAgICA8dGl0bGU+SUJNIENsb3VkIEJsYWNrPC90aXRsZT4KICAgIDxkZXNjPkNyZWF0ZWQgd2l0aCBTa2V0Y2guPC9kZXNjPgogICAgPGcgaWQ9IlBhZ2UtMSIgc3Ryb2tlPSJub25lIiBzdHJva2Utd2lkdGg9IjEiIGZpbGw9Im5vbmUiIGZpbGwtcnVsZT0iZXZlbm9kZCI+CiAgICAgICAgPGcgaWQ9IklCTS1DbG91ZC1CbGFjayIgdHJhbnNmb3JtPSJ0cmFuc2xhdGUoMC43ODQ3MjIsIDAuNTAwMTI1KSIgZmlsbD0iIzAwMDAwMCI+CiAgICAgICAgICAgIDxwYXRoIGQ9Ik0yNy4xMDIxLDI3LjAxMDYgQzI1Ljg3MDEsMjcuODc5NiAyNC4zNjExLDI4LjI2NzYgMjIuODUzMSwyOC4yNjc2IEw3LjAwNDEsMjguMjY3NiBDNC4xMTIxLDI4LjI3NDYgMS43NjIxLDI1LjkzNDYgMS43NTUxLDIzLjA0MjYgQzEuNzQ5MSwyMC40MTA2IDMuNjk3MSwxOC4xODM2IDYuMzA1MSwxNy44Mzg2IEM2LjQxMTEsMTkuMTYxNiA2Ljc4NzEsMjAuNDQ5NiA3LjQwOTEsMjEuNjIxNiBDNy41OTUxLDIxLjk5MTYgOC4wNDYxLDIyLjE0MDYgOC40MTYxLDIxLjk1NDYgQzguNzg2MSwyMS43Njc2IDguOTM1MSwyMS4zMTc2IDguNzQ4MSwyMC45NDc2IEw4LjczMDEsMjAuOTEyNiBDNy4xMzIxLDE3LjkzNTYgNy40MjkxLDE0LjIxNzYgOS42NzIxLDExLjY4OTYgQzEzLjQ4NjEsNy4zOTI2IDE5Ljc4NzEsOC4wNTI2IDIyLjc1NzEsMTIuMjgxNiBDMjAuMzM0MSwxMi4zNDc2IDE4LjA0NzEsMTMuNDE1NiAxNi40NDExLDE1LjIzMDYgQzE2LjE2MTEsMTUuNTM1NiAxNi4xODExLDE2LjAxMDYgMTYuNDg1MSwxNi4yOTA2IEMxNi43ODkxLDE2LjU3MTYgMTcuMjY0MSwxNi41NTI2IDE3LjU0NTEsMTYuMjQ3NiBMMTcuNTY2MSwxNi4yMjI2IEMxOS41OTUxLDEzLjkyMzYgMjIuODg0MSwxMy4wNTI2IDI1LjcwMzEsMTQuMjYzNiBDMzEuMTY1MSwxNi42MDk2IDMxLjgxMDEsMjMuNjkyNiAyNy4xMDIxLDI3LjAxMDYgTTI0LjU4NTEsMTIuOTE3NiBDMjIuMDU0MSw4LjE3NTYgMTYuMTU5MSw2LjM4MjYgMTEuNDE2MSw4LjkxMzYgQzguNDY1MSwxMC40ODg2IDYuNTI5MSwxMy40Njg2IDYuMjkwMSwxNi44MDY2IEMyLjU4NDEsMTcuMjA0NiAtMC4wOTc5LDIwLjUzMjYgMC4zMDExLDI0LjIzOTYgQzAuNjY5MSwyNy42NjU2IDMuNTU5MSwzMC4yNjM2IDcuMDA0MSwzMC4yNjc2IEwyMy4wMDQxLDMwLjI2NzYgQzI3LjgzNTEsMzAuMjcwNiAzMS43NTMxLDI2LjM1NzYgMzEuNzU2MSwyMS41MjY2IEMzMS43NTkxLDE3LjMwMTYgMjguNzQxMSwxMy42Nzg2IDI0LjU4NTEsMTIuOTE3NiIgaWQ9IkZpbGwtMSI+PC9wYXRoPgogICAgICAgICAgICA8ZyBpZD0iR3JvdXAtNSIgdHJhbnNmb3JtPSJ0cmFuc2xhdGUoMjcuMDAwMDAwLCA4LjI2NzcwMCkiPgogICAgICAgICAgICAgICAgPHBhdGggZD0iTTQuOTAyOCwwLjkxOTcgQzQuNjkzOCwwLjU1NjcgNC4yMjk4LDAuNDMyNyAzLjg2NjgsMC42NDE3IEMzLjg2NjgsMC42NDE3IDMuODY2OCwwLjY0MTcgMy44NjY4LDAuNjQyNyBMMC44NDY4LDIuMzg1NyBDMC40Nzg4LDIuNTg2NyAwLjM0MzgsMy4wNDc3IDAuNTQ0OCwzLjQxNTcgQzAuNzQ1OCwzLjc4MzcgMS4yMDY4LDMuOTE4NyAxLjU3NDgsMy43MTc3IEMxLjU4NDgsMy43MTE3IDEuNTk0OCwzLjcwNTcgMS42MDQ4LDMuNjk5NyBMNC42MjQ4LDEuOTU2NyBDNC45ODc4LDEuNzQ2NyA1LjExMTgsMS4yODI3IDQuOTAyOCwwLjkxOTciIGlkPSJGaWxsLTMiPjwvcGF0aD4KICAgICAgICAgICAgPC9nPgogICAgICAgICAgICA8cGF0aCBkPSJNMjIuNjgxMiw2LjgwMjYgQzIzLjA0MzIsNy4wMTI2IDIzLjUwNzIsNi44ODg2IDIzLjcxNzIsNi41MjU2IEwyMy43MTcyLDYuNTI1NiBMMjUuNDYxMiwzLjUwNTYgQzI1LjY2ODIsMy4xNDA2IDI1LjU0MDIsMi42Nzc2IDI1LjE3NjIsMi40NzA2IEMyNC44MTUyLDIuMjY2NiAyNC4zNTcyLDIuMzg4NiAyNC4xNDcyLDIuNzQ2NiBMMjIuNDAzMiw1Ljc2NjYgQzIyLjE5NDIsNi4xMjk2IDIyLjMxODIsNi41OTM2IDIyLjY4MTIsNi44MDI2IiBpZD0iRmlsbC02Ij48L3BhdGg+CiAgICAgICAgICAgIDxwYXRoIGQ9Ik0xNi4wMDQ0LDUuMDE0MSBDMTYuNDIzNCw1LjAxNDEgMTYuNzYzNCw0LjY3NDEgMTcuMzM1NCw0LjI1NTEgTDE3LjMzNTQsMC43NjcxIEMxNi43Njg0LDAuMzQ4MSAxNi40MzI0LDAuMDA1MSAxNi4wMTM0LDAuMDAwMSBDMTUuNTk0NCwtMC4wMDQ5IDE1LjI1MTQsMC4zMzExIDE1LjMzNTQsMC43NTAxIEwxNS4zMzU0LDAuNzY3MSBMMTUuMzM1NCw0LjI1NTEgQzE1LjI0NjQsNC42NzQxIDE1LjU4NTQsNS4wMTQxIDE2LjAwNDQsNS4wMTQxIiBpZD0iRmlsbC04Ij48L3BhdGg+CiAgICAgICAgICAgIDxwYXRoIGQ9Ik04LjI5Miw2LjUyNDggQzguNTA0LDYuODg1OCA4Ljk2OSw3LjAwNjggOS4zMzEsNi43OTQ4IEM5LjY4OCw2LjU4NDggOS44MTEsNi4xMjY4IDkuNjA2LDUuNzY1OCBMNy44NjIsMi43NDU4IEM3LjY1NSwyLjM4MTggNy4xOTIsMi4yNTM4IDYuODI4LDIuNDYwOCBDNi40NjMsMi42Njc4IDYuMzM1LDMuMTMwOCA2LjU0MiwzLjQ5NDggQzYuNTQ0LDMuNDk4OCA2LjU0NiwzLjUwMTggNi41NDgsMy41MDQ4IEw4LjI5Miw2LjUyNDggWiIgaWQ9IkZpbGwtMTAiPjwvcGF0aD4KICAgICAgICAgICAgPGcgaWQ9Ikdyb3VwLTE0IiB0cmFuc2Zvcm09InRyYW5zbGF0ZSgwLjAwMDAwMCwgOC4yNjc3MDApIj4KICAgICAgICAgICAgICAgIDxwYXRoIGQ9Ik00LjE2MzEsMi4zODYgTDEuMTQzMSwwLjY0MiBDMC43ODIxLDAuNDMgMC4zMTcxLDAuNTUxIDAuMTA0MSwwLjkxMiBDLTAuMTA3OSwxLjI3MyAwLjAxMzEsMS43MzkgMC4zNzQxLDEuOTUgQzAuMzc4MSwxLjk1MiAwLjM4MTEsMS45NTQgMC4zODQxLDEuOTU2IEwzLjQwNTEsMy43IEMzLjc2NjEsMy45MTIgNC4yMzExLDMuNzkxIDQuNDQzMSwzLjQzIEM0LjY1NTEsMy4wNjkgNC41MzUxLDIuNjA0IDQuMTczMSwyLjM5MiBDNC4xNzAxLDIuMzkgNC4xNjYxLDIuMzg4IDQuMTYzMSwyLjM4NiBaIiBpZD0iRmlsbC0xMiI+PC9wYXRoPgogICAgICAgICAgICA8L2c+CiAgICAgICAgPC9nPgogICAgPC9nPgo8L3N2Zz4=;" vertex="1" parent="YctmOl4MNaRxCmh7PBM7-10">
          <mxGeometry x="20" y="7" width="21" height="19.73" as="geometry" />
        </mxCell>
        <mxCell id="YctmOl4MNaRxCmh7PBM7-2" value="Code Engine" style="group;fontFamily=IBM Plex Sans;verticalAlign=top;labelPosition=center;verticalLabelPosition=bottom;align=center;spacingLeft=0;spacingRight=0;spacingBottom=4;whiteSpace=wrap;html=1;fontStyle=0;fontSize=14;strokeOpacity=0;strokeColor=none;strokeWidth=0;spacing=0;connectable=1;" vertex="1" connectable="0" parent="1">
          <mxGeometry x="1400" y="760" width="48" height="48" as="geometry" />
        </mxCell>
        <mxCell id="YctmOl4MNaRxCmh7PBM7-3" value="" style="editable=0;moveable=0;rounded=0;whiteSpace=wrap;html=1;spacingLeft=0;verticalAlign=top;fontFamily=IBM Plex Sans;fontSize=14;align=center;spacingBottom=0;spacingRight=0;labelPosition=center;verticalLabelPosition=bottom;spacing=0;strokeColor=#999999;connectable=0;allowArrows=0;" vertex="1" parent="YctmOl4MNaRxCmh7PBM7-2">
          <mxGeometry width="48" height="48" as="geometry" />
        </mxCell>
        <mxCell id="YctmOl4MNaRxCmh7PBM7-4" value="" style="editable=0;moveable=0;rounded=0;shape=image;verticalLabelPosition=bottom;labelBackgroundColor=default;verticalAlign=top;aspect=fixed;imageAspect=0;image=data:image/svg+xml,PHN2ZyBpZD0iY29saWdvLWFwcC1pY29uIiB4bWxucz0iaHR0cDovL3d3dy53My5vcmcvMjAwMC9zdmciIHhtbG5zOnhsaW5rPSJodHRwOi8vd3d3LnczLm9yZy8xOTk5L3hsaW5rIiB2aWV3Qm94PSIwIDAgMzIgMzIiPjxkZWZzPjxsaW5lYXJHcmFkaWVudCBpZD0iYSIgeTE9IjIxIiB4Mj0iOCIgeTI9IjIxIiBncmFkaWVudFVuaXRzPSJ1c2VyU3BhY2VPblVzZSI+PHN0b3Agb2Zmc2V0PSIwLjE1Ii8+PHN0b3Agb2Zmc2V0PSIxIiBzdG9wLW9wYWNpdHk9IjAiLz48L2xpbmVhckdyYWRpZW50PjxsaW5lYXJHcmFkaWVudCBpZD0iYiIgeDE9IjE2LjUiIHkxPSIyMS41IiB4Mj0iMjUuNSIgeTI9IjIxLjUiIGdyYWRpZW50VW5pdHM9InVzZXJTcGFjZU9uVXNlIj48c3RvcCBvZmZzZXQ9IjAuMSIvPjxzdG9wIG9mZnNldD0iMC44IiBzdG9wLW9wYWNpdHk9IjAiLz48L2xpbmVhckdyYWRpZW50PjxsaW5lYXJHcmFkaWVudCBpZD0iYyIgeDE9IjAiIHkxPSI5IiB4Mj0iMTEiIHkyPSI5IiB4bGluazpocmVmPSIjYSIvPjxtYXNrIGlkPSJtYXNrIiB4PSIwIiB5PSIwIiB3aWR0aD0iMzIiIGhlaWdodD0iMzIiIG1hc2tVbml0cz0idXNlclNwYWNlT25Vc2UiPjxwYXRoIGZpbGw9IiNmZmYiIGQ9Ik0yMCwxOHY4SDEwVjE2aDRWMTRIOS4wOEExLjA4LDEuMDgsMCwwLDAsOCwxNS4wOFYyMEgxdjJIOHY0LjkyQTEuMDgsMS4wOCwwLDAsMCw5LjA4LDI4SDIwLjkyQTEuMDgsMS4wOCwwLDAsMCwyMiwyNi45MlYxOFoiLz48cmVjdCB4PSIxIiB5PSI4IiB3aWR0aD0iMTMiIGhlaWdodD0iMiIgZmlsbD0iI2ZmZiIvPjxyZWN0IHk9IjE5IiB3aWR0aD0iOCIgaGVpZ2h0PSI0IiBmaWxsPSJ1cmwoI2EpIi8+PHJlY3QgeD0iMTYuNSIgeT0iMTkuNSIgd2lkdGg9IjkiIGhlaWdodD0iNCIgZmlsbD0idXJsKCNiKSIgdHJhbnNmb3JtPSJ0cmFuc2xhdGUoNDIuNSAwLjUpIHJvdGF0ZSg5MCkiLz48cmVjdCB5PSI3IiB3aWR0aD0iMTEiIGhlaWdodD0iNCIgZmlsbD0idXJsKCNjKSIvPjwvbWFzaz48bGluZWFyR3JhZGllbnQgaWQ9ImQiIHkxPSIzMiIgeDI9IjMyIiBncmFkaWVudFVuaXRzPSJ1c2VyU3BhY2VPblVzZSI+PHN0b3Agb2Zmc2V0PSIwLjEiIHN0b3AtY29sb3I9IiMwOGJkYmEiLz48c3RvcCBvZmZzZXQ9IjAuOSIgc3RvcC1jb2xvcj0iIzBmNjJmZSIvPjwvbGluZWFyR3JhZGllbnQ+PC9kZWZzPjxyZWN0IGlkPSJiYWNrZ3JvdW5kLXNoYXBlIiBtYXNrPSJ1cmwoI21hc2spIiBmaWxsPSJ1cmwoI2QpIiB3aWR0aD0iMzIiIGhlaWdodD0iMzIiLz48cGF0aCBpZD0iZm9yZWdyb3VuZC1jb250YWluZXIiIGZpbGw9IiMwMDFkNmMiIGQ9Ik0yOSwxOEgxN2ExLDEsMCwwLDEtMS0xVjVhMSwxLDAsMCwxLDEtMUgyOWExLDEsMCwwLDEsMSwxVjE3YTEsMSwwLDAsMS0xLDFNMTgsMTZIMjhWNkgxOFoiLz48L3N2Zz4K;imageBorder=none;perimeterSpacing=0;imageBackground=none;sketch=0;connectable=0;allowArrows=0;" vertex="1" parent="YctmOl4MNaRxCmh7PBM7-2">
          <mxGeometry x="12" y="12" width="24" height="24" as="geometry" />
        </mxCell>
        <mxCell id="YctmOl4MNaRxCmh7PBM7-18" style="edgeStyle=orthogonalEdgeStyle;rounded=0;orthogonalLoop=1;jettySize=auto;html=1;entryX=0;entryY=0.5;entryDx=0;entryDy=0;" edge="1" parent="1" source="YctmOl4MNaRxCmh7PBM7-14" target="YctmOl4MNaRxCmh7PBM7-15">
          <mxGeometry relative="1" as="geometry" />
        </mxCell>
        <mxCell id="YctmOl4MNaRxCmh7PBM7-14" value="Git Repository" style="shape=cylinder3;boundedLbl=1;backgroundOutline=1;size=15;fontFamily=IBM Plex Sans;verticalAlign=top;labelPosition=center;verticalLabelPosition=bottom;align=center;html=1;fontSize=14;" vertex="1" parent="1">
          <mxGeometry x="1160" y="760" width="48" height="48" as="geometry" />
        </mxCell>
        <mxCell id="YctmOl4MNaRxCmh7PBM7-19" style="edgeStyle=orthogonalEdgeStyle;rounded=0;orthogonalLoop=1;jettySize=auto;html=1;entryX=0;entryY=0.5;entryDx=0;entryDy=0;" edge="1" parent="1" source="YctmOl4MNaRxCmh7PBM7-15" target="YctmOl4MNaRxCmh7PBM7-2">
          <mxGeometry relative="1" as="geometry" />
        </mxCell>
        <mxCell id="YctmOl4MNaRxCmh7PBM7-15" value="Container&lt;br&gt;Registry" style="group;fontFamily=IBM Plex Sans;verticalAlign=top;labelPosition=center;verticalLabelPosition=bottom;align=center;spacingLeft=0;spacingRight=0;spacingBottom=4;whiteSpace=wrap;html=1;fontStyle=0;fontSize=14;strokeOpacity=0;strokeColor=none;strokeWidth=0;spacing=0;connectable=1;" vertex="1" connectable="0" parent="1">
          <mxGeometry x="1280" y="760" width="48" height="48" as="geometry" />
        </mxCell>
        <mxCell id="YctmOl4MNaRxCmh7PBM7-16" value="" style="editable=0;moveable=0;rounded=0;whiteSpace=wrap;html=1;spacingLeft=0;verticalAlign=top;fontFamily=IBM Plex Sans;fontSize=14;align=center;spacingBottom=0;spacingRight=0;labelPosition=center;verticalLabelPosition=bottom;spacing=0;strokeColor=#999999;connectable=0;allowArrows=0;" vertex="1" parent="YctmOl4MNaRxCmh7PBM7-15">
          <mxGeometry width="48" height="48" as="geometry" />
        </mxCell>
        <mxCell id="YctmOl4MNaRxCmh7PBM7-17" value="" style="editable=0;moveable=0;rounded=0;shape=image;verticalLabelPosition=bottom;labelBackgroundColor=default;verticalAlign=top;aspect=fixed;imageAspect=0;image=data:image/svg+xml,PHN2ZyB4bWxucz0iaHR0cDovL3d3dy53My5vcmcvMjAwMC9zdmciIHhtbG5zOnhsaW5rPSJodHRwOi8vd3d3LnczLm9yZy8xOTk5L3hsaW5rIiB2aWV3Qm94PSIwIDAgMzIgMzIiPgogIDxkZWZzPgogICAgPGxpbmVhckdyYWRpZW50IGlkPSJiNGNjMzZmMy04N2FiLTQ4YjMtODg3ZS05YzFhYzg3NDI5ZTciIHgxPSI3NjYuMzY1IiB5MT0iLTc3MC41NCIgeDI9Ijc3NS41NTciIHkyPSItNzc5LjczMyIgZ3JhZGllbnRUcmFuc2Zvcm09InRyYW5zbGF0ZSgtMTA3Ny43NTYgMzEuNDUzKSByb3RhdGUoNDUpIiBncmFkaWVudFVuaXRzPSJ1c2VyU3BhY2VPblVzZSI+CiAgICAgIDxzdG9wIG9mZnNldD0iMC4wMjQiIHN0b3Atb3BhY2l0eT0iMCIvPgogICAgICA8c3RvcCBvZmZzZXQ9IjAuNjQiLz4KICAgIDwvbGluZWFyR3JhZGllbnQ+CiAgICA8bWFzayBpZD0iYWVmNGQzYjMtNjM5Ni00ODY2LWI2MjAtOGRmOGNiZTg4ZDUwIiB4PSIwIiB5PSIwIiB3aWR0aD0iMzIiIGhlaWdodD0iMzIiIG1hc2tVbml0cz0idXNlclNwYWNlT25Vc2UiPgogICAgICA8cGF0aCBkPSJNMjEsMzBINGEyLDIsMCwwLDEtMi0yVjRBMiwyLDAsMCwxLDQsMkgyOGEyLDIsMCwwLDEsMiwyVjE2SDI4VjRINFYyOEgyMVoiIGZpbGw9IiNmZmYiLz4KICAgICAgPHJlY3QgeD0iOSIgeT0iMjYiIHdpZHRoPSIxMyIgaGVpZ2h0PSI1IiBmaWxsPSJ1cmwoI2I0Y2MzNmYzLTg3YWItNDhiMy04ODdlLTljMWFjODc0MjllNykiLz4KICAgIDwvbWFzaz4KICAgIDxsaW5lYXJHcmFkaWVudCBpZD0iYTk5N2EwODAtNWY1OC00ZDA0LWFhYjktYmYxNTAzNTZlMzcxIiB5MT0iMzIiIHgyPSIzMiIgZ3JhZGllbnRVbml0cz0idXNlclNwYWNlT25Vc2UiPgogICAgICA8c3RvcCBvZmZzZXQ9IjAuMSIgc3RvcC1jb2xvcj0iIzA4YmRiYSIvPgogICAgICA8c3RvcCBvZmZzZXQ9IjAuOSIgc3RvcC1jb2xvcj0iIzBmNjJmZSIvPgogICAgPC9saW5lYXJHcmFkaWVudD4KICA8L2RlZnM+CiAgPGcgaWQ9ImFlZDBhM2Q1LWY1MzItNGJmYy1iZjU5LWE0ZDIwMGFkZGNjZSIgZGF0YS1uYW1lPSJMYXllciAyIj4KICAgIDxnIGlkPSJhMDk1MDkzMi1lYzAwLTQ2MTEtOWIyMC0xYzFiYTIxYjJjYTUiIGRhdGEtbmFtZT0iQnVpbGQgaWNvbiBoZXJlIj4KICAgICAgPGc+CiAgICAgICAgPGcgbWFzaz0idXJsKCNhZWY0ZDNiMy02Mzk2LTQ4NjYtYjYyMC04ZGY4Y2JlODhkNTApIj4KICAgICAgICAgIDxyZWN0IHdpZHRoPSIzMiIgaGVpZ2h0PSIzMiIgZmlsbD0idXJsKCNhOTk3YTA4MC01ZjU4LTRkMDQtYWFiOS1iZjE1MDM1NmUzNzEpIi8+CiAgICAgICAgPC9nPgogICAgICAgIDxwYXRoIGQ9Ik0yOCwzMEgyM2EyLDIsMCwwLDEtMi0yVjIzYTIsMiwwLDAsMSwyLTJoNWEyLDIsMCwwLDEsMiwydjVBMiwyLDAsMCwxLDI4LDMwWm0tNS03aDBsMCw1aDVWMjNaIiBmaWxsPSIjMDAxZDZjIi8+CiAgICAgICAgPHBhdGggZD0iTTE2LDIzSDExYTIsMiwwLDAsMS0yLTJWMTFhMiwyLDAsMCwxLDItMkgyMWEyLDIsMCwwLDEsMiwydjVIMjFWMTFIMTFWMjFoNVoiIGZpbGw9IiMwMDFkNmMiLz4KICAgICAgPC9nPgogICAgPC9nPgogIDwvZz4KPC9zdmc+Cg==;imageBorder=none;perimeterSpacing=0;imageBackground=none;sketch=0;connectable=0;allowArrows=0;" vertex="1" parent="YctmOl4MNaRxCmh7PBM7-15">
          <mxGeometry x="12" y="12" width="24" height="24" as="geometry" />
        </mxCell>
      </root>
    </mxGraphModel>
  </diagram>
</mxfile>
